<svg xmlns="http://www.w3.org/2000/svg" xmlns:xlink="http://www.w3.org/1999/xlink" width="500" zoomAndPan="magnify" viewBox="0 0 375 374.999991" height="500" preserveAspectRatio="xMidYMid meet" version="1.0"><defs><filter x="0%" y="0%" width="100%" height="100%" id="b69bad2bd8"><feColorMatrix values="0 0 0 0 1 0 0 0 0 1 0 0 0 0 1 0 0 0 1 0" color-interpolation-filters="sRGB"/></filter><g/><mask id="f4e7a5d4a2"><g filter="url(#b69bad2bd8)"><rect x="-37.5" width="450" fill="#000000" y="-37.499999" height="449.999989" fill-opacity="0.58"/></g></mask><clipPath id="d9f7580edf"><path d="M 0.957031 0.847656 L 52.257812 0.847656 L 52.257812 52.152344 L 0.957031 52.152344 Z M 0.957031 0.847656 " clip-rule="nonzero"/></clipPath><clipPath id="4a1be53655"><path d="M 26.605469 0.847656 C 12.441406 0.847656 0.957031 12.332031 0.957031 26.5 C 0.957031 40.667969 12.441406 52.152344 26.605469 52.152344 C 40.773438 52.152344 52.257812 40.667969 52.257812 26.5 C 52.257812 12.332031 40.773438 0.847656 26.605469 0.847656 Z M 26.605469 0.847656 " clip-rule="nonzero"/></clipPath><clipPath id="96f8c740e2"><rect x="0" width="53" y="0" height="53"/></clipPath></defs><g mask="url(#f4e7a5d4a2)"><g transform="matrix(1, 0, 0, 1, 98, 161)"><g clip-path="url(#96f8c740e2)"><g clip-path="url(#d9f7580edf)"><g clip-path="url(#4a1be53655)"><path fill="#000000" d="M 0.957031 0.847656 L 52.257812 0.847656 L 52.257812 52.152344 L 0.957031 52.152344 Z M 0.957031 0.847656 " fill-opacity="1" fill-rule="nonzero"/></g></g></g></g></g><g fill="#ffffff" fill-opacity="1"><g transform="translate(109.755026, 198.823052)"><g><path d="M 10.0625 -15.328125 C 9.425781 -16.140625 8.722656 -17.097656 7.953125 -18.203125 L 7.90625 -18.203125 L 7.984375 -6.296875 C 7.984375 -4.859375 7.929688 -3.707031 7.828125 -2.84375 C 8.648438 -2.914062 9.613281 -2.953125 10.71875 -2.953125 L 10.71875 0 L 1.953125 0 L 1.953125 -2.53125 C 2.648438 -2.5625 3.175781 -2.644531 3.53125 -2.78125 C 3.894531 -2.925781 4.175781 -3.226562 4.375 -3.6875 C 4.582031 -4.144531 4.6875 -4.875 4.6875 -5.875 L 4.609375 -20.578125 C 4.609375 -22.296875 4.660156 -23.453125 4.765625 -24.046875 L 1.84375 -23.921875 L 1.84375 -26.890625 L 7.875 -26.890625 L 19.625 -12.0625 C 20.695312 -10.65625 21.59375 -9.4375 22.3125 -8.40625 L 22.359375 -8.40625 L 22.359375 -20.578125 C 22.359375 -22.242188 22.394531 -23.398438 22.46875 -24.046875 L 19.59375 -23.921875 L 19.59375 -26.890625 L 28.34375 -26.890625 L 28.34375 -24.34375 C 27.65625 -24.320312 27.128906 -24.238281 26.765625 -24.09375 C 26.410156 -23.957031 26.128906 -23.65625 25.921875 -23.1875 C 25.710938 -22.726562 25.609375 -22.003906 25.609375 -21.015625 L 25.609375 0.390625 L 22.359375 0.390625 Z M 10.0625 -15.328125 "/></g></g></g><g fill="#ffffff" fill-opacity="1"><g transform="translate(159.170999, 199.213195)"><g><path d="M 1.59375 0 C 1.644531 -1.269531 1.6875 -2.675781 1.71875 -4.21875 C 1.75 -5.769531 1.765625 -7.675781 1.765625 -9.9375 C 1.765625 -12.175781 1.75 -14.082031 1.71875 -15.65625 C 1.6875 -17.226562 1.644531 -18.671875 1.59375 -19.984375 C 3.8125 -19.984375 5.726562 -19.988281 7.34375 -20 C 8.957031 -20.019531 10.390625 -20.050781 11.640625 -20.09375 L 10.71875 -18.078125 C 10.382812 -18.117188 10 -18.144531 9.5625 -18.15625 C 9.132812 -18.175781 8.425781 -18.1875 7.4375 -18.1875 L 4.84375 -18.171875 C 4.832031 -18.066406 4.820312 -17.90625 4.8125 -17.6875 C 4.800781 -17.476562 4.796875 -17.066406 4.796875 -16.453125 L 4.796875 -11.09375 L 6.125 -11.09375 C 7.113281 -11.09375 8.050781 -11.097656 8.9375 -11.109375 C 9.832031 -11.128906 10.679688 -11.148438 11.484375 -11.171875 L 10.5625 -9.25 C 10.082031 -9.28125 9.640625 -9.300781 9.234375 -9.3125 C 8.835938 -9.332031 8.472656 -9.34375 8.140625 -9.34375 L 4.796875 -9.34375 L 4.796875 -4.03125 C 4.796875 -3.3125 4.800781 -2.816406 4.8125 -2.546875 C 4.820312 -2.273438 4.832031 -2.0625 4.84375 -1.90625 C 5.050781 -1.894531 5.265625 -1.882812 5.484375 -1.875 C 5.703125 -1.875 6.015625 -1.875 6.421875 -1.875 L 7.765625 -1.875 C 8.972656 -1.875 9.847656 -1.882812 10.390625 -1.90625 C 10.941406 -1.925781 11.429688 -1.960938 11.859375 -2.015625 L 10.890625 0.140625 C 10.066406 0.0859375 9.09375 0.0507812 7.96875 0.03125 C 6.84375 0.0078125 5.59375 0 4.21875 0 Z M 1.59375 0 "/></g></g></g><g fill="#ffffff" fill-opacity="1"><g transform="translate(191.917858, 199.213195)"><g><path d="M 5.25 -18.171875 C 4.976562 -18.191406 4.695312 -18.203125 4.40625 -18.203125 C 4.125 -18.210938 3.710938 -18.21875 3.171875 -18.21875 C 2.578125 -18.21875 2.007812 -18.207031 1.46875 -18.1875 C 0.9375 -18.175781 0.425781 -18.160156 -0.0625 -18.140625 L 1.28125 -20.09375 C 1.925781 -20.050781 2.660156 -20.019531 3.484375 -20 C 4.304688 -19.988281 5.273438 -19.984375 6.390625 -19.984375 C 7.628906 -19.984375 8.863281 -19.984375 10.09375 -19.984375 C 11.332031 -19.992188 12.632812 -20.007812 14 -20.03125 L 12.59375 -18.140625 C 11.519531 -18.148438 10.675781 -18.160156 10.0625 -18.171875 C 9.445312 -18.179688 8.875 -18.179688 8.34375 -18.171875 C 8.332031 -17.734375 8.320312 -17.25 8.3125 -16.71875 C 8.3125 -16.1875 8.3125 -15.378906 8.3125 -14.296875 C 8.3125 -11.078125 8.328125 -8.257812 8.359375 -5.84375 C 8.398438 -3.425781 8.457031 -1.476562 8.53125 0 L 5.0625 0.140625 C 5.132812 -1.441406 5.1875 -3.359375 5.21875 -5.609375 C 5.257812 -7.859375 5.28125 -10.394531 5.28125 -13.21875 C 5.28125 -13.726562 5.273438 -14.53125 5.265625 -15.625 C 5.253906 -16.726562 5.25 -17.578125 5.25 -18.171875 Z M 5.25 -18.171875 "/></g></g></g><g fill="#ffffff" fill-opacity="1"><g transform="translate(225.371185, 199.213195)"><g><path d="M 5.234375 -20.09375 C 5.179688 -18.644531 5.140625 -17.09375 5.109375 -15.4375 C 5.078125 -13.78125 5.0625 -11.984375 5.0625 -10.046875 C 5.0625 -8.109375 5.078125 -6.304688 5.109375 -4.640625 C 5.140625 -2.984375 5.1875 -1.4375 5.25 0 L 1.765625 0.140625 C 1.828125 -1.328125 1.875 -2.894531 1.90625 -4.5625 C 1.9375 -6.226562 1.953125 -8.019531 1.953125 -9.9375 C 1.953125 -11.832031 1.9375 -13.609375 1.90625 -15.265625 C 1.875 -16.929688 1.828125 -18.503906 1.765625 -19.984375 Z M 5.234375 -20.09375 "/></g></g></g><g fill="#ffffff" fill-opacity="1"><g transform="translate(252.272372, 199.213195)"><g><path d="M 4.84375 -8.609375 L 10.15625 -8.609375 L 7.28125 -16.0625 Z M -0.0625 0.171875 C 0.789062 -2.078125 1.53125 -4.046875 2.15625 -5.734375 C 2.789062 -7.421875 3.207031 -8.550781 3.40625 -9.125 L 6.390625 -17.953125 L 5.578125 -19.65625 L 8.625 -20.484375 C 8.894531 -19.734375 9.195312 -18.910156 9.53125 -18.015625 C 9.875 -17.117188 10.394531 -15.769531 11.09375 -13.96875 L 13.90625 -6.6875 C 14.238281 -5.8125 14.625 -4.84375 15.0625 -3.78125 C 15.507812 -2.71875 16.003906 -1.5625 16.546875 -0.3125 L 13.375 0.34375 L 10.828125 -6.6875 L 4.21875 -6.6875 L 2.078125 0 Z M -0.0625 0.171875 "/></g></g></g></svg>