<svg xmlns="http://www.w3.org/2000/svg" xmlns:xlink="http://www.w3.org/1999/xlink" width="500" zoomAndPan="magnify" viewBox="0 0 375 374.999991" height="500" preserveAspectRatio="xMidYMid meet" version="1.0"><defs><g/><clipPath id="def113a19e"><path d="M 192 118 L 269.742188 118 L 269.742188 186 L 192 186 Z M 192 118 " clip-rule="nonzero"/></clipPath><clipPath id="02fb036e0f"><path d="M 230 168 L 269.742188 168 L 269.742188 258 L 230 258 Z M 230 168 " clip-rule="nonzero"/></clipPath><clipPath id="3bba872333"><path d="M 148 215 L 226 215 L 226 269.742188 L 148 269.742188 Z M 148 215 " clip-rule="nonzero"/></clipPath><clipPath id="308561a4bf"><path d="M 105.492188 190 L 183 190 L 183 258 L 105.492188 258 Z M 105.492188 190 " clip-rule="nonzero"/></clipPath><clipPath id="5ecaf4ccc7"><path d="M 105.492188 117 L 145 117 L 145 207 L 105.492188 207 Z M 105.492188 117 " clip-rule="nonzero"/></clipPath><clipPath id="7403a76c77"><path d="M 149 105.492188 L 227 105.492188 L 227 160 L 149 160 Z M 149 105.492188 " clip-rule="nonzero"/></clipPath><clipPath id="daf6f34129"><path d="M 103.683594 103.683594 L 271.316406 103.683594 L 271.316406 271.316406 L 103.683594 271.316406 Z M 103.683594 103.683594 " clip-rule="nonzero"/></clipPath><clipPath id="9ea05df4e2"><path d="M 187.5 271.316406 C 165.121094 271.316406 144.050781 262.609375 128.238281 246.761719 C 112.390625 230.949219 103.683594 209.878906 103.683594 187.5 C 103.683594 165.121094 112.390625 144.050781 128.238281 128.238281 C 144.050781 112.390625 165.121094 103.683594 187.5 103.683594 C 209.878906 103.683594 230.949219 112.390625 246.761719 128.238281 C 262.609375 144.082031 271.316406 165.121094 271.316406 187.5 C 271.316406 209.878906 262.609375 230.949219 246.761719 246.761719 C 230.949219 262.609375 209.878906 271.316406 187.5 271.316406 Z M 187.5 108.707031 C 166.460938 108.707031 146.664062 116.914062 131.789062 131.789062 C 116.914062 146.664062 108.707031 166.460938 108.707031 187.5 C 108.707031 208.539062 116.914062 228.335938 131.789062 243.210938 C 146.664062 258.085938 166.460938 266.292969 187.5 266.292969 C 208.539062 266.292969 228.335938 258.085938 243.210938 243.210938 C 258.085938 228.335938 266.292969 208.539062 266.292969 187.5 C 266.292969 166.460938 258.085938 146.664062 243.210938 131.789062 C 228.335938 116.914062 208.539062 108.707031 187.5 108.707031 Z M 187.5 108.707031 " clip-rule="nonzero"/></clipPath><clipPath id="3411cdafb1"><path d="M 110.441406 110.441406 L 264.558594 110.441406 L 264.558594 264.558594 L 110.441406 264.558594 Z M 110.441406 110.441406 " clip-rule="nonzero"/></clipPath><clipPath id="0cfe0815fb"><path d="M 187.5 264.558594 C 166.925781 264.558594 147.554688 256.550781 133.019531 241.980469 C 118.449219 227.445312 110.441406 208.074219 110.441406 187.5 C 110.441406 166.925781 118.449219 147.554688 133.019531 133.019531 C 147.554688 118.449219 166.925781 110.441406 187.5 110.441406 C 208.074219 110.441406 227.445312 118.449219 241.980469 133.019531 C 256.550781 147.585938 264.558594 166.925781 264.558594 187.5 C 264.558594 208.074219 256.550781 227.445312 241.980469 241.980469 C 227.445312 256.550781 208.074219 264.558594 187.5 264.558594 Z M 187.5 115.0625 C 168.160156 115.0625 149.957031 122.609375 136.28125 136.28125 C 122.609375 149.957031 115.0625 168.160156 115.0625 187.5 C 115.0625 206.839844 122.609375 225.042969 136.28125 238.71875 C 149.957031 252.390625 168.160156 259.9375 187.5 259.9375 C 206.839844 259.9375 225.042969 252.390625 238.71875 238.71875 C 252.390625 225.042969 259.9375 206.839844 259.9375 187.5 C 259.9375 168.160156 252.390625 149.957031 238.71875 136.28125 C 225.042969 122.609375 206.839844 115.0625 187.5 115.0625 Z M 187.5 115.0625 " clip-rule="nonzero"/></clipPath><clipPath id="11ac8ca865"><path d="M 170.144531 163.25 L 179.734375 163.25 L 179.734375 209.417969 L 170.144531 209.417969 Z M 170.144531 163.25 " clip-rule="nonzero"/></clipPath></defs><rect x="-37.5" width="450" fill="#ffffff" y="-37.499999" height="449.999989" fill-opacity="1"/><rect x="-37.5" width="450" fill="#ffffff" y="-37.499999" height="449.999989" fill-opacity="1"/><g clip-path="url(#def113a19e)"><path fill="#100f0d" d="M 231.367188 118.066406 L 192.578125 140.460938 L 230.9375 162.609375 L 269.742188 185.011719 C 268.871094 156.808594 253.765625 132.171875 231.367188 118.066406 " fill-opacity="1" fill-rule="nonzero"/></g><g clip-path="url(#02fb036e0f)"><path fill="#100f0d" d="M 230.9375 168.324219 L 230.9375 257.441406 C 253.425781 243.46875 268.675781 218.894531 269.71875 190.714844 L 230.9375 168.324219 " fill-opacity="1" fill-rule="nonzero"/></g><g clip-path="url(#3bba872333)"><path fill="#100f0d" d="M 225.984375 215.476562 L 187.625 237.625 L 187.609375 237.625 L 148.789062 260.042969 C 160.363281 266.253906 173.578125 269.78125 187.625 269.78125 C 201.484375 269.78125 214.539062 266.335938 225.984375 260.277344 L 225.984375 215.476562 " fill-opacity="1" fill-rule="nonzero"/></g><g clip-path="url(#308561a4bf)"><path fill="#100f0d" d="M 182.65625 234.761719 L 144.316406 212.628906 L 105.492188 190.222656 C 106.363281 218.425781 121.480469 243.058594 143.875 257.160156 L 182.65625 234.761719 " fill-opacity="1" fill-rule="nonzero"/></g><g clip-path="url(#5ecaf4ccc7)"><path fill="#100f0d" d="M 144.316406 206.910156 L 144.316406 117.792969 C 121.796875 131.765625 106.5625 156.332031 105.519531 184.519531 L 144.316406 206.910156 " fill-opacity="1" fill-rule="nonzero"/></g><g clip-path="url(#7403a76c77)"><path fill="#100f0d" d="M 187.625 105.453125 C 173.765625 105.453125 160.722656 108.886719 149.261719 114.957031 L 149.261719 159.746094 L 187.625 137.597656 L 226.445312 115.195312 C 214.886719 108.984375 201.667969 105.453125 187.625 105.453125 " fill-opacity="1" fill-rule="nonzero"/></g><g clip-path="url(#daf6f34129)"><g clip-path="url(#9ea05df4e2)"><path fill="#ffffff" d="M 103.683594 103.683594 L 271.316406 103.683594 L 271.316406 271.316406 L 103.683594 271.316406 Z M 103.683594 103.683594 " fill-opacity="1" fill-rule="nonzero"/></g></g><g clip-path="url(#3411cdafb1)"><g clip-path="url(#0cfe0815fb)"><path fill="#ffffff" d="M 110.441406 110.441406 L 264.558594 110.441406 L 264.558594 264.558594 L 110.441406 264.558594 Z M 110.441406 110.441406 " fill-opacity="1" fill-rule="nonzero"/></g></g><g fill="#000000" fill-opacity="1"><g transform="translate(165.815105, 215.812721)"><g><path d="M 1.765625 -58.875 L 12.0625 -58.875 L 45.046875 -8.59375 L 45.046875 -34.265625 C 45.046875 -39.992188 44.570312 -44.613281 43.625 -48.125 C 42.6875 -51.644531 41.460938 -54.21875 39.953125 -55.84375 C 38.441406 -57.46875 36.835938 -58.28125 35.140625 -58.28125 L 35.140625 -58.875 L 51.046875 -58.875 L 51.046875 -58.28125 C 49.359375 -58.28125 48.128906 -57.769531 47.359375 -56.75 C 46.597656 -55.726562 46.117188 -54.070312 45.921875 -51.78125 C 45.722656 -49.488281 45.625 -46.394531 45.625 -42.5 L 45.625 1.171875 L 45.046875 1.171875 L 7.765625 -55.578125 L 7.765625 -24.609375 C 7.765625 -18.921875 8.234375 -14.304688 9.171875 -10.765625 C 10.117188 -7.234375 11.347656 -4.65625 12.859375 -3.03125 C 14.367188 -1.40625 15.96875 -0.59375 17.65625 -0.59375 L 17.65625 0 L 1.765625 0 L 1.765625 -0.59375 C 3.453125 -0.59375 4.675781 -1.101562 5.4375 -2.125 C 6.207031 -3.144531 6.691406 -4.8125 6.890625 -7.125 C 7.085938 -9.4375 7.1875 -12.519531 7.1875 -16.375 L 7.1875 -42.5 C 7.1875 -46.394531 7.085938 -49.488281 6.890625 -51.78125 C 6.691406 -54.070312 6.207031 -55.726562 5.4375 -56.75 C 4.675781 -57.769531 3.453125 -58.28125 1.765625 -58.28125 Z M 1.765625 -58.875 "/></g></g></g><g clip-path="url(#11ac8ca865)"><path fill="#ffffff" d="M 170.144531 209.417969 L 170.144531 163.261719 L 179.734375 163.261719 L 179.734375 209.417969 Z M 170.144531 209.417969 " fill-opacity="1" fill-rule="nonzero"/></g><g fill="#000000" fill-opacity="1"><g transform="translate(171.911199, 170.935193)"><g><path d="M 0 6.703125 L 0 5.734375 L 6.125 1.75 L 6.125 1.703125 C 5.40625 1.753906 4.742188 1.78125 4.140625 1.78125 L 0 1.78125 L 0 1 L 7.296875 1 L 7.296875 1.953125 L 1.203125 5.9375 L 1.203125 5.984375 C 1.285156 5.972656 1.570312 5.953125 2.0625 5.921875 C 2.550781 5.898438 2.898438 5.894531 3.109375 5.90625 L 7.296875 5.90625 L 7.296875 6.703125 Z M 0 6.703125 "/></g></g></g><g fill="#000000" fill-opacity="1"><g transform="translate(171.911199, 179.839596)"><g><path d="M -0.09375 3.1875 C -0.09375 2.375 0.148438 1.734375 0.640625 1.265625 C 1.128906 0.804688 1.8125 0.578125 2.6875 0.578125 C 3.570312 0.578125 4.269531 0.789062 4.78125 1.21875 C 5.300781 1.65625 5.5625 2.238281 5.5625 2.96875 C 5.5625 3.65625 5.335938 4.195312 4.890625 4.59375 C 4.441406 5 3.847656 5.203125 3.109375 5.203125 L 2.578125 5.203125 L 2.578125 1.4375 C 1.941406 1.445312 1.457031 1.601562 1.125 1.90625 C 0.789062 2.21875 0.625 2.65625 0.625 3.21875 C 0.625 3.800781 0.75 4.382812 1 4.96875 L 0.25 4.96875 C 0.125 4.675781 0.0351562 4.398438 -0.015625 4.140625 C -0.0664062 3.878906 -0.09375 3.5625 -0.09375 3.1875 Z M 4.875 2.96875 C 4.875 2.53125 4.726562 2.175781 4.4375 1.90625 C 4.15625 1.644531 3.765625 1.492188 3.265625 1.453125 L 3.265625 4.3125 C 3.785156 4.3125 4.179688 4.191406 4.453125 3.953125 C 4.734375 3.722656 4.875 3.394531 4.875 2.96875 Z M 4.875 2.96875 "/></g></g></g><g fill="#000000" fill-opacity="1"><g transform="translate(171.911199, 186.772077)"><g><path d="M 0.578125 2.640625 C 0.578125 2.785156 0.585938 2.925781 0.609375 3.0625 C 0.640625 3.195312 0.664062 3.304688 0.6875 3.390625 L 0.046875 3.390625 C 0.00390625 3.304688 -0.0234375 3.175781 -0.046875 3 C -0.078125 2.820312 -0.09375 2.664062 -0.09375 2.53125 C -0.09375 1.46875 0.460938 0.9375 1.578125 0.9375 L 4.828125 0.9375 L 4.828125 0.15625 L 5.21875 0.15625 L 5.5625 0.9375 L 6.734375 1.28125 L 6.734375 1.765625 L 5.46875 1.765625 L 5.46875 3.359375 L 4.828125 3.359375 L 4.828125 1.765625 L 1.609375 1.765625 C 1.273438 1.765625 1.019531 1.84375 0.84375 2 C 0.664062 2.15625 0.578125 2.367188 0.578125 2.640625 Z M 0.578125 2.640625 "/></g></g></g><g fill="#000000" fill-opacity="1"><g transform="translate(171.911199, 191.577876)"><g><path d="M 0 1.703125 L 0 0.875 L 5.46875 0.875 L 5.46875 1.703125 Z M 6.953125 0.8125 C 7.140625 0.8125 7.273438 0.859375 7.359375 0.953125 C 7.453125 1.046875 7.5 1.160156 7.5 1.296875 C 7.5 1.429688 7.453125 1.546875 7.359375 1.640625 C 7.273438 1.734375 7.140625 1.78125 6.953125 1.78125 C 6.765625 1.78125 6.625 1.734375 6.53125 1.640625 C 6.4375 1.546875 6.390625 1.429688 6.390625 1.296875 C 6.390625 1.160156 6.4375 1.046875 6.53125 0.953125 C 6.625 0.859375 6.765625 0.8125 6.953125 0.8125 Z M 6.953125 0.8125 "/></g></g></g><g fill="#000000" fill-opacity="1"><g transform="translate(171.911199, 195.360268)"><g><path d="M 0 4.234375 L 0.78125 4.078125 L 0.78125 4.03125 C 0.4375 3.757812 0.203125 3.488281 0.078125 3.21875 C -0.0351562 2.945312 -0.09375 2.609375 -0.09375 2.203125 C -0.09375 1.660156 0.0390625 1.234375 0.3125 0.921875 C 0.59375 0.617188 0.992188 0.46875 1.515625 0.46875 C 2.617188 0.46875 3.195312 1.351562 3.25 3.125 L 3.28125 4.046875 L 3.625 4.046875 C 4.050781 4.046875 4.363281 3.953125 4.5625 3.765625 C 4.769531 3.585938 4.875 3.296875 4.875 2.890625 C 4.875 2.429688 4.734375 1.914062 4.453125 1.34375 L 5.09375 1.078125 C 5.238281 1.347656 5.351562 1.644531 5.4375 1.96875 C 5.519531 2.289062 5.5625 2.613281 5.5625 2.9375 C 5.5625 3.582031 5.414062 4.0625 5.125 4.375 C 4.832031 4.695312 4.367188 4.859375 3.734375 4.859375 L 0 4.859375 Z M 0.578125 2.375 C 0.578125 2.882812 0.71875 3.285156 1 3.578125 C 1.289062 3.878906 1.691406 4.03125 2.203125 4.03125 L 2.6875 4.03125 L 2.65625 3.203125 C 2.632812 2.535156 2.53125 2.054688 2.34375 1.765625 C 2.164062 1.484375 1.882812 1.34375 1.5 1.34375 C 1.195312 1.34375 0.96875 1.429688 0.8125 1.609375 C 0.65625 1.785156 0.578125 2.039062 0.578125 2.375 Z M 0.578125 2.375 "/></g></g></g></svg>